<?xml version="1.0" encoding="UTF-8" standalone="no"?>
<svg
   xmlns:dc="http://purl.org/dc/elements/1.1/"
   xmlns:cc="http://creativecommons.org/ns#"
   xmlns:rdf="http://www.w3.org/1999/02/22-rdf-syntax-ns#"
   xmlns:svg="http://www.w3.org/2000/svg"
   xmlns="http://www.w3.org/2000/svg"
   xmlns:sodipodi="http://sodipodi.sourceforge.net/DTD/sodipodi-0.dtd"
   xmlns:inkscape="http://www.inkscape.org/namespaces/inkscape"
   width="778.659"
   height="225.51456"
   viewBox="0 0 159.46936 46.156139"
   version="1.1"
   id="svg4"
   sodipodi:docname="express-109.svg"
   inkscape:version="0.92.3 (2405546, 2018-03-11)">
  <metadata
     id="metadata10">
    <rdf:RDF>
      <cc:Work
         rdf:about="">
        <dc:format>image/svg+xml</dc:format>
        <dc:type
           rdf:resource="http://purl.org/dc/dcmitype/StillImage" />
        <dc:title></dc:title>
      </cc:Work>
    </rdf:RDF>
  </metadata>
  <defs
     id="defs8" />
  <sodipodi:namedview
     pagecolor="#ffffff"
     bordercolor="#666666"
     borderopacity="1"
     objecttolerance="10"
     gridtolerance="10"
     guidetolerance="10"
     inkscape:pageopacity="0"
     inkscape:pageshadow="2"
     inkscape:window-width="1366"
     inkscape:window-height="731"
     id="namedview6"
     showgrid="false"
     inkscape:zoom="0.44820626"
     inkscape:cx="475.24022"
     inkscape:cy="221.60877"
     inkscape:window-x="0"
     inkscape:window-y="18"
     inkscape:window-maximized="0"
     inkscape:current-layer="svg4" />
  <path
     d="M 1.0377968,35.988292 V 18.240784 H 23.196564 V 17.202676 H 1.0377968 V 1.011863 H 24.597527 V -0.025934 H 0 V 37.026089 H 24.804961 V 35.988292 H 1.0381082 Z M 44.784419,10.352656 35.599357,22.443985 26.621418,10.352968 h -1.34926 L 34.976431,23.222644 24.337767,37.025777 H 25.58331 L 35.598735,24.000369 45.666172,37.025777 h 1.297246 L 36.273364,23.222022 46.02934,10.352345 h -1.245232 z m 5.293012,35.806792 V 29.553765 h 0.103719 c 0.622925,2.42163 1.851027,4.367655 3.684613,5.838074 1.833587,1.470109 4.168629,2.205474 7.00544,2.205474 1.833587,0 3.459738,-0.371887 4.878144,-1.115662 1.418405,-0.743776 2.603212,-1.755721 3.554733,-3.035836 0.95121,-1.280116 1.677855,-2.767666 2.179624,-4.462962 0.501456,-1.694985 0.752495,-3.476869 0.752495,-5.344716 0,-2.00676 -0.259761,-3.857788 -0.778659,-5.552773 -0.5189,-1.695297 -1.271395,-3.165717 -2.257177,-4.410948 -0.986094,-1.245543 -2.179622,-2.214506 -3.580898,-2.905956 -1.400963,-0.692072 -2.983822,-1.038108 -4.748263,-1.038108 -1.34926,0 -2.603213,0.199025 -3.762169,0.596764 -1.158956,0.398051 -2.188032,0.959931 -3.087539,1.686576 a 11.422617,11.422617 0 0 0 -2.335354,2.56864 c -0.657188,0.986094 -1.158956,2.067184 -1.504992,3.243582 H 50.07743 v -7.473258 h -1.037796 v 35.806792 z m 10.793772,-9.54854 c -3.25168,0 -5.863926,-1.115663 -7.835802,-3.346988 -1.971877,-2.231325 -2.95797,-5.440335 -2.95797,-9.626406 0,-1.729869 0.242318,-3.373151 0.726644,-4.929846 0.484327,-1.556695 1.184808,-2.923398 2.101445,-4.099484 0.916949,-1.176398 2.050054,-2.110478 3.399004,-2.802238 1.34926,-0.692072 2.871693,-1.038109 4.566678,-1.038109 1.72987,0 3.243582,0.346037 4.540828,1.038109 1.297247,0.69176 2.369928,1.634561 3.217421,2.828089 0.847493,1.193529 1.487549,2.560231 1.920173,4.099484 0.432312,1.539565 0.648468,3.174126 0.648468,4.903995 0,1.557007 -0.198714,3.105292 -0.596766,4.644545 -0.39774,1.539565 -1.011945,2.923398 -1.842308,4.15181 -0.83005,1.22779 -1.893699,2.231014 -3.191256,3.009673 -1.297557,0.778348 -2.862972,1.167366 -4.696559,1.167366 z m 17.073191,0.415181 V 21.925087 c 0,-1.452978 0.207434,-2.871694 0.622927,-4.255216 0.414869,-1.383833 1.054927,-2.603524 1.919861,-3.658451 0.864935,-1.055239 1.963155,-1.885601 3.295286,-2.491086 1.331818,-0.605486 2.914676,-0.856214 4.748262,-0.752497 V 9.730041 c -1.591579,-0.03426 -2.983822,0.13829 -4.177351,0.518898 -1.193839,0.380609 -2.222915,0.899507 -3.08785,1.557007 -0.864934,0.657188 -1.556695,1.426814 -2.075593,2.309191 a 10.325019,10.325019 0 0 0 -1.141825,2.82809 H 77.944394 V 10.352656 H 76.906597 V 37.0264 h 1.037797 z M 89.827976,23.896963 h 22.314174 c 0.0695,-1.833586 -0.11212,-3.597716 -0.54474,-5.293012 -0.43232,-1.695297 -1.12439,-3.200289 -2.0756,-4.514666 -0.95152,-1.314687 -2.17962,-2.369926 -3.68461,-3.165716 -1.505,-0.795789 -3.29529,-1.193528 -5.37088,-1.193528 -1.487857,0 -2.940833,0.311463 -4.359237,0.934391 -1.418407,0.622615 -2.663949,1.530532 -3.736318,2.72406 -1.072369,1.193529 -1.937303,2.655228 -2.594492,4.385408 -0.657189,1.729557 -0.986093,3.701434 -0.986093,5.915628 0,1.971877 0.224875,3.814184 0.674629,5.526611 0.449753,1.712427 1.141514,3.200288 2.075593,4.462962 0.934392,1.262673 2.13664,2.240046 3.606748,2.931807 1.470108,0.692072 3.243272,1.020666 5.31917,0.986094 3.04424,0 5.60447,-0.856525 7.68007,-2.568641 2.0759,-1.712738 3.304,-4.125647 3.68461,-7.239348 h -1.0378 c -0.44975,2.940839 -1.6003,5.146313 -3.45101,6.616421 -1.85102,1.47042 -4.17735,2.205474 -6.9799,2.205474 -1.902728,0 -3.511433,-0.328594 -4.826121,-0.985782 -1.314375,-0.657189 -2.387057,-1.557007 -3.21742,-2.698521 -0.830051,-1.141826 -1.444256,-2.482365 -1.841996,-4.02193 -0.398049,-1.539253 -0.614205,-3.208698 -0.648777,-5.007712 z M 111.10437,22.859166 H 89.828288 c 0.103406,-1.868158 0.449442,-3.546013 1.037485,-5.033563 0.588354,-1.487862 1.35798,-2.759256 2.309503,-3.814183 0.95121,-1.055239 2.058463,-1.859438 3.321136,-2.413221 1.262674,-0.55347 2.620651,-0.830362 4.073628,-0.830362 1.72987,0 3.25168,0.320185 4.56668,0.960243 1.31438,0.640057 2.41291,1.513713 3.29529,2.620655 0.88206,1.106941 1.54797,2.395778 1.99773,3.865886 0.44975,1.47042 0.67463,3.018705 0.67463,4.644545 z m 22.57394,-4.618382 h 1.0378 c 0,-2.975412 -0.86493,-5.137592 -2.5945,-6.486853 -1.73017,-1.34926 -4.08267,-2.02389 -7.05776,-2.02389 -1.66072,0 -3.06168,0.207746 -4.20351,0.622927 -1.14151,0.414869 -2.07559,0.95121 -2.80224,1.608398 -0.72633,0.657188 -1.24523,1.383833 -1.55669,2.179622 -0.31147,0.79579 -0.4672,1.557007 -0.4672,2.28334 0,1.452978 0.25945,2.611934 0.77866,3.476868 0.5189,0.864935 1.33182,1.539565 2.43876,2.023891 0.76122,0.345725 1.62584,0.657188 2.5948,0.934391 0.96866,0.27658 2.09304,0.570601 3.37316,0.881753 1.1415,0.277203 2.26588,0.553783 3.37315,0.830362 1.10694,0.276892 2.0843,0.648779 2.9318,1.115663 0.84781,0.467195 1.53957,1.06396 2.07591,1.790604 0.53603,0.726334 0.8042,1.677855 0.8042,2.853941 0,1.141826 -0.26786,2.110478 -0.8042,2.905956 a 6.4831151,6.4831151 0 0 1 -2.04974,1.946336 c -0.83037,0.501457 -1.75604,0.864623 -2.77639,1.0895 -1.02067,0.224877 -2.01517,0.337315 -2.98382,0.337315 -3.14828,0 -5.5615,-0.700482 -7.23935,-2.101445 -1.67785,-1.401275 -2.51663,-3.606749 -2.51663,-6.616733 h -1.0381 c 0,3.35602 0.90822,5.812222 2.72437,7.369229 1.81645,1.556695 4.50625,2.335043 8.06971,2.335043 1.14151,0 2.29175,-0.129881 3.45102,-0.38933 1.15864,-0.259449 2.19675,-0.683039 3.11339,-1.271394 a 7.036586,7.036586 0 0 0 2.23132,-2.283029 c 0.57091,-0.93439 0.85653,-2.075905 0.85653,-3.425165 0,-1.280115 -0.25104,-2.317912 -0.7525,-3.113702 -0.50177,-0.795478 -1.15896,-1.452977 -1.97219,-1.971876 -0.81292,-0.518898 -1.72956,-0.925358 -2.75022,-1.21938 a 160.74014,160.74014 0 0 0 -3.08786,-0.856525 537.79644,537.79644 0 0 0 -3.81418,-0.985782 c -1.08949,-0.276891 -2.10144,-0.605485 -3.03553,-0.986094 -0.89951,-0.380608 -1.61743,-0.925358 -2.15376,-1.634561 -0.53634,-0.709203 -0.8042,-1.721148 -0.8042,-3.035836 0,-0.242007 0.0691,-0.67463 0.20744,-1.297246 0.13829,-0.622927 0.46719,-1.254264 0.98609,-1.894322 0.5189,-0.639746 1.31438,-1.210659 2.38706,-1.712426 1.07237,-0.501457 2.54279,-0.752497 4.41094,-0.752497 1.28012,0 2.44749,0.138602 3.50272,0.415181 1.05524,0.276892 1.96347,0.717924 2.72437,1.323409 0.76122,0.605486 1.34926,1.375112 1.76445,2.309192 0.41517,0.93439 0.62292,2.075905 0.62292,3.425165 z m 24.02662,0 h 1.0378 c 0,-2.975412 -0.86463,-5.137592 -2.5945,-6.486853 -1.72986,-1.34926 -4.08235,-2.02389 -7.05776,-2.02389 -1.66042,0 -3.06169,0.207746 -4.20321,0.622927 -1.14183,0.414869 -2.07591,0.95121 -2.80224,1.608398 -0.72665,0.657188 -1.24554,1.383833 -1.55701,2.179622 -0.31146,0.79579 -0.46688,1.557007 -0.46688,2.28334 0,1.452978 0.25945,2.611934 0.77866,3.476868 0.51859,0.864935 1.33182,1.539565 2.43876,2.023891 0.76121,0.345725 1.62584,0.657188 2.59449,0.934391 0.96865,0.27658 2.09304,0.570601 3.37316,0.881753 1.14183,0.277203 2.26621,0.553783 3.37315,0.830362 1.10725,0.276892 2.08432,0.648779 2.93212,1.115663 0.84749,0.467195 1.53956,1.06396 2.07559,1.790604 0.53634,0.726334 0.80451,1.677855 0.80451,2.853941 0,1.141826 -0.26817,2.110478 -0.80451,2.905956 a 6.4831151,6.4831151 0 0 1 -2.04943,1.946336 c -0.83067,0.501457 -1.75603,0.864623 -2.7767,1.0895 -1.02035,0.224877 -2.01516,0.337315 -2.98382,0.337315 -3.14827,0 -5.56119,-0.700482 -7.23904,-2.101445 -1.67817,-1.401275 -2.51694,-3.606749 -2.51694,-6.616733 h -1.0378 c 0,3.35602 0.90792,5.812222 2.72437,7.369229 1.81615,1.556695 4.50595,2.335043 8.0694,2.335043 1.14183,0 2.29206,-0.129881 3.45102,-0.38933 1.15864,-0.259449 2.19675,-0.683039 3.1137,-1.271394 a 7.036586,7.036586 0 0 0 2.23133,-2.283029 c 0.57091,-0.93439 0.85621,-2.075905 0.85621,-3.425165 0,-1.280115 -0.25073,-2.317912 -0.7525,-3.113702 -0.50145,-0.795478 -1.15864,-1.452977 -1.97187,-1.971876 -0.81291,-0.518898 -1.72987,-0.925358 -2.75022,-1.21938 a 160.73734,160.73734 0 0 0 -3.08785,-0.856525 537.78865,537.78865 0 0 0 -3.81418,-0.985782 c -1.08981,-0.276891 -2.10177,-0.605485 -3.03583,-0.986094 -0.89951,-0.380608 -1.61744,-0.925358 -2.15346,-1.634561 -0.53634,-0.709203 -0.80451,-1.721148 -0.80451,-3.035836 0,-0.242007 0.0691,-0.67463 0.20774,-1.297246 0.13829,-0.622927 0.4672,-1.254264 0.98578,-1.894322 0.5189,-0.639746 1.31469,-1.210659 2.38706,-1.712426 1.07268,-0.501457 2.54279,-0.752497 4.41126,-0.752497 1.28012,0 2.44748,0.138602 3.50272,0.415181 1.05524,0.276892 1.96316,0.717924 2.72437,1.323409 0.76122,0.605486 1.34926,1.375112 1.76444,2.309192 0.41518,0.93439 0.62293,2.075905 0.62293,3.425165 z"
     id="path2"
     inkscape:connector-curvature="0"
     style="fill:#222222;stroke-width:0.31146362" />
</svg>