<?xml version="1.0" encoding="UTF-8" standalone="no"?>
<svg
   xmlns:dc="http://purl.org/dc/elements/1.1/"
   xmlns:cc="http://creativecommons.org/ns#"
   xmlns:rdf="http://www.w3.org/1999/02/22-rdf-syntax-ns#"
   xmlns:svg="http://www.w3.org/2000/svg"
   xmlns="http://www.w3.org/2000/svg"
   xmlns:sodipodi="http://sodipodi.sourceforge.net/DTD/sodipodi-0.dtd"
   xmlns:inkscape="http://www.inkscape.org/namespaces/inkscape"
   width="400"
   height="400"
   viewBox="0 0 81.92 81.92"
   version="1.1"
   id="svg4"
   sodipodi:docname="sass.svg"
   inkscape:version="0.92.3 (2405546, 2018-03-11)">
  <metadata
     id="metadata10">
    <rdf:RDF>
      <cc:Work
         rdf:about="">
        <dc:format>image/svg+xml</dc:format>
        <dc:type
           rdf:resource="http://purl.org/dc/dcmitype/StillImage" />
        <dc:title></dc:title>
      </cc:Work>
    </rdf:RDF>
  </metadata>
  <defs
     id="defs8" />
  <sodipodi:namedview
     pagecolor="#ffffff"
     bordercolor="#666666"
     borderopacity="1"
     objecttolerance="10"
     gridtolerance="10"
     guidetolerance="10"
     inkscape:pageopacity="0"
     inkscape:pageshadow="2"
     inkscape:window-width="1366"
     inkscape:window-height="731"
     id="namedview6"
     showgrid="false"
     inkscape:zoom="0.78571348"
     inkscape:cx="271.94781"
     inkscape:cy="226.8353"
     inkscape:window-x="0"
     inkscape:window-y="18"
     inkscape:window-maximized="0"
     inkscape:current-layer="svg4" />
  <path
     d="m 69.923666,45.425939 c -2.806405,0.01584 -5.236531,0.689842 -7.274703,1.693407 -0.752554,-1.489433 -1.50511,-2.790884 -1.630379,-3.762779 -0.141105,-1.128833 -0.313566,-1.818831 -0.141105,-3.167004 0.172305,-1.348485 0.956216,-3.261229 0.956216,-3.418012 -0.01584,-0.141105 -0.172617,-0.830946 -1.787319,-0.846625 -1.614702,-0.01568 -3.010222,0.313565 -3.167004,0.736877 -0.156783,0.423313 -0.470347,1.395364 -0.674165,2.398771 -0.282208,1.473754 -3.229717,6.694607 -4.907288,9.4383 C 50.749181,47.432753 50.278833,46.492059 50.184608,45.739346 50.04366,44.61067 49.871043,43.920671 50.04366,42.5725 c 0.172461,-1.348487 0.956372,-3.261075 0.956372,-3.417857 -0.01568,-0.141104 -0.172461,-0.830947 -1.787162,-0.846625 -1.615016,-0.01568 -3.010222,0.313565 -3.167004,0.736878 -0.156782,0.423312 -0.329243,1.426719 -0.674165,2.39877 -0.329399,0.972051 -4.248959,9.689152 -5.268044,11.962496 -0.517383,1.16019 -0.971894,2.085206 -1.301294,2.712335 -0.329243,0.62713 -0.01568,0.04704 -0.04704,0.109748 -0.282208,0.53306 -0.43899,0.830947 -0.43899,0.830947 v 0.01583 c -0.219495,0.391956 -0.454669,0.768078 -0.564573,0.768078 -0.07839,0 -0.235174,-1.050443 0.03135,-2.492684 0.580096,-3.026057 1.991137,-7.745049 1.975616,-7.91751 0,-0.07839 0.266373,-0.909495 -0.909495,-1.332651 -1.144512,-0.423313 -1.551989,0.282208 -1.646215,0.282208 -0.09407,0 -0.172461,0.250852 -0.172461,0.250852 0,0 1.269937,-5.314766 -2.430127,-5.314766 -2.320379,0 -5.518739,2.524196 -7.102242,4.828898 -1.003408,0.548738 -3.135648,1.708771 -5.393314,2.947508 -0.862303,0.470349 -1.755963,0.972051 -2.602587,1.426721 L 19.32999,50.333228 C 14.846014,45.551365 6.552226,42.164865 6.8971472,35.736787 7.0225732,33.40073 7.8378416,27.239182 22.826395,19.77634 35.102455,13.661827 44.93271,15.3394 46.641482,19.070819 c 2.430127,5.330602 -5.25221,15.239249 -18.014139,16.665968 -4.860254,0.548739 -7.415964,-1.33265 -8.058615,-2.038171 -0.674164,-0.736878 -0.768234,-0.768234 -1.019086,-0.62713 -0.407633,0.219497 -0.156782,0.877982 0,1.269937 0.376278,0.987729 1.944102,2.743693 4.609403,3.621674 2.3359,0.768234 8.042936,1.191546 14.941362,-1.473755 C 46.829778,33.494798 52.8659,25.185333 51.094259,18.239873 49.291261,11.168987 37.563939,8.8486086 26.479425,12.783846 19.878729,15.135582 12.729452,18.80429 7.5869898,23.617509 1.4724767,29.324387 0.50042592,34.310068 0.90806018,36.379595 2.3349367,43.764045 12.509956,48.577264 16.586299,52.136225 c -0.203818,0.109591 -0.391956,0.219338 -0.564417,0.313565 -2.038171,1.00325 -9.798899,5.064071 -11.7430005,9.359751 -2.1949535,4.860254 0.3449211,8.356658 2.038171,8.827006 5.2365315,1.458076 10.5984895,-1.16019 13.4989635,-5.471707 2.884638,-4.311515 2.539875,-9.908645 1.207224,-12.464198 l -0.04719,-0.09407 1.599179,-0.940693 c 1.03492,-0.611452 2.054006,-1.175869 2.947508,-1.66205 -0.501546,1.364006 -0.862302,2.978865 -1.050284,5.330601 -0.219495,2.759526 0.909338,6.334008 2.398771,7.74505 0.658485,0.611293 1.442398,0.627129 1.928422,0.627129 1.724607,0 2.508519,-1.426877 3.370822,-3.135647 1.06612,-2.085206 2.006815,-4.499654 2.006815,-4.499654 0,0 -1.175868,6.537824 2.038171,6.537824 1.175867,0 2.351735,-1.520788 2.884796,-2.3047 v 0.01568 c 0,0 0.03136,-0.04704 0.09407,-0.156782 a 5.6645476,5.6645476 0 0 0 0.18814,-0.297731 v -0.03136 c 0.470347,-0.815268 1.520789,-2.680979 3.088613,-5.769593 2.022335,-3.982273 3.966595,-8.967952 3.966595,-8.967952 0,0 0.188138,1.222903 0.768232,3.229718 0.344766,1.191703 1.09732,2.492839 1.677416,3.762776 -0.470347,0.658487 -0.752555,1.034922 -0.752555,1.034922 l 0.01568,0.01568 c -0.376121,0.501704 -0.79959,1.034922 -1.238424,1.567825 -1.59918,1.912744 -3.511926,4.092177 -3.762777,4.719306 -0.297887,0.73672 -0.235174,1.285459 0.344921,1.724607 0.423312,0.313564 1.175867,0.37612 1.975458,0.313564 1.442398,-0.09423 2.445805,-0.454668 2.947509,-0.674321 0.783912,-0.282208 1.677571,-0.70552 2.539875,-1.332651 1.567823,-1.160032 2.524195,-2.806247 2.430127,-5.0012 -0.04704,-1.207226 -0.438991,-2.398771 -0.925017,-3.527604 0.141104,-0.203817 0.282364,-0.407791 0.423312,-0.62713 2.477163,-3.62183 4.389908,-7.603946 4.389908,-7.603946 0,0 0.188138,1.222904 0.768234,3.229718 0.297729,1.019085 0.893659,2.132396 1.426718,3.229874 -2.320379,1.897066 -3.778455,4.09202 -4.280158,5.534418 -0.925017,2.6653 -0.203818,3.872525 1.16019,4.154733 0.611294,0.125426 1.489432,-0.156782 2.147761,-0.43899 0.815268,-0.266531 1.802997,-0.721356 2.712492,-1.395364 1.567824,-1.16019 3.072934,-2.775048 2.994544,-4.954323 -0.04704,-1.003408 -0.313565,-1.991137 -0.674164,-2.93183 1.975457,-0.815268 4.530853,-1.285617 7.776406,-0.893661 6.976817,0.815268 8.356502,5.173819 8.090128,6.992495 -0.26653,1.818832 -1.724607,2.822083 -2.210789,3.135648 -0.486024,0.297886 -0.642808,0.40779 -0.595773,0.627129 0.06271,0.3294 0.282208,0.313564 0.705521,0.251009 0.580095,-0.09423 3.668707,-1.489433 3.794134,-4.84442 0.188134,-4.312143 -3.903886,-9.015615 -11.162911,-8.968737 z M 16.115951,63.56566 c -2.304701,2.524197 -5.550096,3.48057 -6.9297808,2.665301 -1.4894328,-0.862303 -0.909495,-4.578045 1.9284238,-7.259024 1.724606,-1.630536 3.966594,-3.135648 5.440348,-4.060664 0.329244,-0.203817 0.830947,-0.501546 1.42672,-0.862304 0.09407,-0.06256 0.156782,-0.09407 0.156782,-0.09407 0.109748,-0.06272 0.235174,-0.141104 0.360599,-0.219497 1.050443,3.825491 0.04704,7.180634 -2.383092,9.830256 z M 32.970058,52.104868 c -0.79959,1.95978 -2.49284,6.992494 -3.511926,6.710286 -0.878137,-0.235173 -1.411041,-4.044985 -0.172617,-7.807762 0.62713,-1.897224 1.959781,-4.154734 2.743692,-5.032872 1.270094,-1.411041 2.649622,-1.881388 2.994701,-1.301294 0.407633,0.752713 -1.552146,6.208741 -2.05385,7.431642 z m 13.906597,6.647574 c -0.344921,0.172617 -0.658486,0.297886 -0.79959,0.203973 -0.109747,-0.06271 0.140948,-0.297887 0.140948,-0.297887 0,0 1.740284,-1.86571 2.430127,-2.728012 0.391956,-0.501547 0.862304,-1.081642 1.364007,-1.740286 v 0.18814 c 1.56e-4,2.25751 -2.16344,3.76262 -3.135492,4.374072 z m 10.723759,-2.445806 c -0.250851,-0.188139 -0.219338,-0.768233 0.62713,-2.586909 0.329399,-0.721198 1.081798,-1.928424 2.383092,-3.072935 0.156783,0.470347 0.251009,0.92486 0.235173,1.348329 -0.01552,2.822083 -2.022336,3.872524 -3.245395,4.311515 z"
     id="path2"
     inkscape:connector-curvature="0"
     style="fill:#cf649a;stroke-width:0.15678239" />
</svg>